<svg xmlns="http://www.w3.org" aria-hidden="true" style="position:absolute;width:0;height:0;overflow:hidden">
  <!-- Навігація -->
  <symbol id="icon-burger-menu" viewBox="0 0 32 32">
    <path fill="none" stroke="currentColor" stroke-linecap="round" stroke-linejoin="round" stroke-width="2.286" d="M4 16h24M4 8h24M12 24h16"/>
  </symbol>
  <symbol id="icon-close-menu" viewBox="0 0 32 32">
    <path fill="none" stroke="currentColor" stroke-linecap="round" stroke-linejoin="round" stroke-width="2.286" d="M24 8 8 24M8 8l16 16"/>
  </symbol>
  <symbol id="icon-chevron-left" viewBox="0 0 32 32">
    <path fill="none" stroke="currentColor" stroke-linecap="round" stroke-linejoin="round" stroke-width="2.4" d="m20 24-8-8 8-8"/>
  </symbol>
  <symbol id="icon-chevron-right" viewBox="0 0 32 32">
    <path fill="none" stroke="currentColor" stroke-linecap="round" stroke-linejoin="round" stroke-width="3" d="m12 8 8 8-8 8"/>
  </symbol>
  <symbol id="icon-log-in" viewBox="0 0 32 32">
    <path fill="none" stroke="currentColor" stroke-linecap="round" stroke-linejoin="round" stroke-width="2.667" d="M18.667 22.667 25.334 16l-6.667-6.667M25.333 16H6.666"/>
  </symbol>

  <!-- Дії та Стани -->
  <symbol id="icon-trash" viewBox="0 0 32 32">
    <path fill="none" stroke="currentColor" stroke-linecap="round" stroke-linejoin="round" stroke-width="2.286" d="M4 8h24M25.334 8v18.667a2.668 2.668 0 0 1-2.667 2.667H9.334a2.668 2.668 0 0 1-2.667-2.667V8m4 0V5.333a2.67 2.67 0 0 1 2.667-2.667h5.333a2.668 2.668 0 0 1 2.667 2.667V8M13.333 14.667v8M18.667 14.667v8"/>
  </symbol>
  <symbol id="icon-check" viewBox="0 0 32 32">
    <path fill="currentColor" d="m15 21.76-5.4-6.081 1.8-2.026 3.601 4.052L22.2 9.6l1.801 2.027-9 10.133z"/>
    <path fill="none" stroke="currentColor" stroke-width="2" d="M16 29.09A13.09 13.09 0 1 1 16 2.91a13.09 13.09 0 0 1 0 26.18z"/>
  </symbol>
  <symbol id="icon-hourglass" viewBox="0 0 32 32">
    <path fill="none" stroke="currentColor" stroke-linecap="round" stroke-linejoin="round" stroke-width="3.2" d="m16 16-5.697-4.748c-.846-.705-1.27-1.058-1.574-1.49a3.978 3.978 0 0 1-.591-1.263c-.137-.511-.137-1.061-.137-2.163V2.667M16 16l5.697-4.748c.847-.705 1.27-1.058 1.574-1.49.27-.383.47-.811.592-1.263C24 7.988 24 7.438 24 6.336V2.667M16 16l-5.697 4.748c-.846.705-1.27 1.058-1.574 1.49-.27.383-.47.811-.591 1.263-.137.511-.137 1.061-.137 2.163v3.669M16 16l5.697 4.748c.847.705 1.27 1.058 1.574 1.49.27.383.47.811.592 1.263.137.511.137 1.061.137 2.163v3.669M5.333 2.667h21.333M5.333 29.333h21.333"/>
  </symbol>

  <!-- Приватність -->
  <symbol id="icon-eye" viewBox="0 0 32 32">
    <path fill="none" stroke="currentColor" stroke-linecap="round" stroke-linejoin="round" stroke-width="2.08" d="M1.333 16S6.666 5.333 16 5.333 30.667 16 30.667 16 25.334 26.667 16 26.667C6.667 26.667 1.333 16 1.333 16z"/>
    <circle cx="16" cy="16" r="4" fill="none" stroke="currentColor" stroke-width="2.08"/>
  </symbol>
  <symbol id="icon-eye-off" viewBox="0 0 32 32">
    <path fill="none" stroke="currentColor" stroke-linecap="round" stroke-linejoin="round" stroke-width="2.08" d="M23.92 23.92A13.43 13.43 0 0 1 16 26.667C6.667 26.667 1.333 16 1.333 16A24.605 24.605 0 0 1 8.08 8.08m5.12-2.427a12.161 12.161 0 0 1 2.8-.32C25.333 5.333 30.667 16 30.667 16a24.646 24.646 0 0 1-2.88 4.253m-8.96-1.426a4.003 4.003 0 0 1-5.755.102 3.994 3.994 0 0 1-.824-4.457c.219-.491.534-.932.927-1.298M1.333 1.333l29.333 29.333"/>
  </symbol>

  <!-- Аналітика та Контент -->
  <symbol id="icon-line-diagram" viewBox="0 0 78 32">
    <path fill="currentColor" opacity="0.2" d="M78.222 1.778 1.778 12.382V32h76.444V1.778z" />
    <path fill="currentColor" d="M75.129.284 2.272 12.063a1.778 1.778 0 0 0-1.471 2.039l.05.308a1.778 1.778 0 0 0 2.039 1.471L75.747 4.102a1.778 1.778 0 0 0 1.471-2.039l-.05-.308A1.778 1.778 0 0 0 75.129.284z" />
  </symbol>
  <symbol id="icon-diary" viewBox="0 0 32 32">
    <path fill="none" stroke="currentColor" stroke-linecap="round" stroke-linejoin="round" stroke-width="3.2" d="M22.933 18.667c.369 0 .554 0 .704.082a.708.708 0 0 1 .293.324c.067.157.05.324.016.659a10.672 10.672 0 0 1-12.694 9.397 10.66 10.66 0 0 1-8.381-8.381 10.666 10.666 0 0 1 9.397-12.694c.334-.034.502-.05.659.016c.13.055.257.17.324.293.082.15.082.334.082.704V17.6c0 .373 0 .56.073.703a.665.665 0 0 0 .291.291c.143.073.329.073.703.073h8.533zM18.667 3.733c0-.369 0-.554.082-.704a.713.713 0 0 1 .324-.293c.157-.067.324-.05.659-.016a10.67 10.67 0 0 1 9.549 9.549c.034.334.05.502-.016.659a.704.704 0 0 1-.293.324c-.15.082-.334.082-.704.082h-8.533c-.373 0-.56 0-.703-.073a.665.665 0 0 1-.291-.291c-.073-.143-.073-.329-.073-.703V3.734z"/>
  </symbol>

  <!-- Спеціальні режими (Recording/Reading) -->
  <symbol id="icon-read-on" viewBox="0 0 32 32">
    <circle cx="16" cy="16" r="15.36" fill="none" stroke="currentColor" stroke-width="1.28"/>
    <rect x="11.52" y="9.6" width="8.96" height="8.96" rx="1.92" fill="#e90516"/>
  </symbol>
  <symbol id="icon-read-off" viewBox="0 0 32 32">
    <circle cx="16" cy="16" r="12.8" fill="#e90516" />
    <circle cx="16" cy="16" r="15.36" fill="none" stroke="currentColor" stroke-width="1.28"/>
  </symbol>

  <!-- Брендинг та Вкладки -->
  <symbol id="icon-block-tab-active" viewBox="0 0 32 32">
    <path fill="currentColor" d="M6.4 0h19.2A6.4 6.4 0 0 1 32 6.4v19.2a6.4 6.4 0 0 1-6.4 6.4H6.4A6.4 6.4 0 0 1 0 25.6V6.4A6.4 6.4 0 0 1 6.4 0z"/>
    <path fill="black" opacity="0.3" d="M9.6 6.4h12.8a3.2 3.2 0 0 1 3.2 3.2v12.8a3.2 3.2 0 0 1-3.2 3.2H9.6a3.2 3.2 0 0 1-3.2-3.2V9.6a3.2 3.2 0 0 1 3.2-3.2z"/>
  </symbol>
  <symbol id="icon-logo" viewBox="0 0 79 32">
    <path fill="currentColor" d="M0 20.706V0h24.264c3.299 0 6.512 1.051 9.173 3.001a11.704 11.704 0 0 1 3.693 4.503l2.807 6.034a40.83 40.83 0 0 1 4.055-7.536l.139-.204c.463-.679.992-1.31 1.58-1.884l1.196-1.168A8.113 8.113 0 0 1 49.626.991l.103-.04A13.854 13.854 0 0 1 54.776 0h24.283v20.706H0zM0 24.471h79.059V32H0v-7.529z"/>
  </symbol>
</svg>
